PathFileType	4	(X/Y/Z)	S1_rest_slow_right.trc
DataRate	CameraRate	NumFrames	NumMarkers	Units	OrigDataRate	OrigDataStartFrame	OrigNumFrames
250.00	250.00	12	18	mm	250.00	3135	25073
Frame#	Time	c7	r_should	l_should	clavicle	r_upa	r_elb_l	r_elb_m	r_low	r_wri_l	r_wri_m	r_met	l_upa	l_elb_l	l_elb_m	l_low	l_wri_l	l_wri_m	l_met
	X1	Y1	Z1	X2	Y2	Z2	X3	Y3	Z3	X4	Y4	Z4	X5	Y5	Z5	X6	Y6	Z6	X7	Y7	Z7	X8	Y8	Z8	X9	Y9	Z9	X10	Y10	Z10	X11	Y11	Z11	X12	Y12	Z12	X13	Y13	Z13	X14	Y14	Z14	X15	Y15	Z15	X16	Y16	Z16	X17	Y17	Z17	X18	Y18	Z18
3135	12.53600	384.77084	1423.02271	37.80767	449.63943	1351.71130	207.17755	416.42746	1366.96960	-158.70079	518.97089	1301.16833	11.62948	456.89267	1143.36035	254.81433	481.41071	1083.62122	265.29553	472.90411	1032.10986	174.39824	592.25781	1032.01221	239.26913	669.57825	1105.53613	264.98978	680.47778	1081.21228	191.46022	743.28345	1083.32080	286.96442	395.71545	1159.89429	-229.20000	400.71225	1081.27820	-251.51790	338.40482	1044.65625	-180.34222	394.95953	935.51898	-258.49551	495.14157	876.51239	-230.16676	432.83258	845.51251	-249.36594	531.60583	803.91968	-254.62535
3136	12.54000	384.82001	1423.00842	37.81566	449.65756	1351.78027	207.16496	416.49191	1366.97034	-158.69652	519.08099	1301.22278	11.64017	457.21115	1143.45544	254.83710	481.78036	1083.99536	265.28983	473.45581	1032.29333	174.41975	592.73346	1033.32031	239.13667	669.54779	1107.43152	264.74619	680.57703	1083.08264	191.23682	744.08521	1085.36914	286.62955	395.80511	1159.88940	-229.17780	400.81647	1081.26465	-251.50121	338.51474	1044.64734	-180.30930	395.06418	935.50513	-258.47333	495.24771	876.51001	-230.16980	432.94595	845.50787	-249.36195	531.71594	803.91010	-254.63135
3137	12.54400	384.86581	1422.98987	37.83061	449.68903	1351.84448	207.15663	416.56442	1366.96887	-158.68724	519.19482	1301.27600	11.64368	457.53354	1143.56433	254.86662	482.13092	1084.36328	265.29068	474.04605	1032.50171	174.43994	593.21082	1034.58362	239.01826	669.49939	1109.31201	264.49847	680.82892	1084.53650	190.79495	744.38593	1087.77588	286.32962	395.90015	1159.88635	-229.15671	400.93597	1081.24683	-251.47826	338.63037	1044.63745	-180.27623	395.16714	935.49280	-258.45456	495.35486	876.50513	-230.16780	433.05890	845.49268	-249.35403	531.81958	803.89526	-254.63727
3138	12.54800	384.91849	1422.96680	37.84940	449.72626	1351.89917	207.13979	416.64328	1366.96216	-158.67734	519.30914	1301.32556	11.65014	457.86374	1143.67102	254.89723	482.48758	1084.72766	265.30075	474.67010	1032.75134	174.45898	593.69983	1035.78955	238.92789	669.42932	1111.15833	264.27411	681.26318	1085.53027	190.03143	744.56885	1090.26013	286.06110	395.99731	1159.88074	-229.13826	400.69617	1081.13074	-251.26788	338.75171	1044.61987	-180.24901	395.26776	935.47772	-258.43494	495.45694	876.49670	-230.16788	433.17035	845.48267	-249.34500	531.92511	803.88892	-254.64561
3139	12.55200	384.98071	1422.94666	37.86880	449.77002	1351.95386	207.12762	416.72177	1366.96448	-158.67133	519.42749	1301.37439	11.65574	458.19492	1143.78882	254.91321	482.83759	1085.08630	265.32367	475.25192	1032.98669	174.48335	594.22388	1036.99109	238.85074	669.33319	1113.02344	264.05383	681.38904	1087.26404	189.68889	745.47015	1092.97278	285.70331	396.09644	1159.87280	-229.12550	399.97244	1080.90356	-250.84192	338.86469	1044.60815	-180.21487	395.37201	935.46271	-258.40958	495.56168	876.49042	-230.17302	433.28262	845.47577	-249.33708	532.03076	803.88416	-254.66406
3140	12.55600	385.03812	1422.92542	37.87879	449.81635	1352.01453	207.11479	416.79996	1366.97009	-158.65421	519.65338	1301.23840	11.93749	458.53250	1143.90649	254.92731	483.17340	1085.44092	265.34195	475.74527	1033.13098	174.53766	594.71960	1038.15771	238.76874	669.21185	1114.87219	263.80457	681.41650	1089.14868	189.49001	747.36914	1095.90149	285.14880	396.19958	1159.86682	-229.10063	399.87070	1080.84631	-250.71901	338.98575	1044.58997	-180.17683	395.48050	935.45312	-258.39038	495.67224	876.48590	-230.17871	433.39307	845.46674	-249.32941	532.14478	803.88239	-254.68141
3141	12.56000	385.09735	1422.90259	37.89315	449.86020	1352.08032	207.10092	416.88287	1366.97205	-158.63121	520.01495	1300.87463	12.56708	458.87430	1144.02173	254.93991	483.51205	1085.79797	265.35165	476.27765	1033.21814	174.57124	595.20123	1039.38184	238.55513	669.09064	1116.70569	263.53244	681.42438	1091.03687	189.34090	747.84613	1098.52502	284.80209	396.30133	1159.86194	-229.07632	399.93219	1080.82117	-250.67607	339.10312	1044.57471	-180.14473	395.58969	935.44562	-258.37708	495.78189	876.48248	-230.17937	433.50580	845.46039	-249.32494	532.26550	803.87848	-254.69867
3142	12.56400	385.15411	1422.87805	37.90765	449.89203	1352.14502	207.08075	416.96860	1366.96985	-158.61646	520.09045	1301.00098	12.45378	459.20633	1144.13367	254.96548	483.85675	1086.14832	265.35858	476.79074	1033.30835	174.59941	595.63831	1040.69714	238.15085	668.96838	1118.55640	263.26508	681.39886	1092.93005	189.22244	747.93481	1101.09363	284.50436	396.40637	1159.85144	-229.06151	400.02774	1080.81189	-250.65137	339.21057	1044.56616	-180.11031	395.69922	935.43927	-258.35883	495.88898	876.47479	-230.18034	433.62323	845.44867	-249.31012	532.37958	803.88672	-254.71881
3143	12.56800	385.21982	1422.86243	37.92587	449.91928	1352.20117	207.06772	417.05664	1366.96667	-158.59895	520.09583	1301.23816	12.14791	459.52499	1144.23560	254.98831	484.19888	1086.50378	265.37079	477.27060	1033.43335	174.66531	596.11163	1041.91418	237.95775	668.84723	1120.37085	263.00681	681.38159	1094.56958	189.22023	747.97693	1103.63611	284.19608	396.51315	1159.84229	-229.03461	400.12891	1080.80859	-250.62346	339.33832	1044.55518	-180.08144	395.80939	935.42932	-258.33994	496.00211	876.46613	-230.18233	433.73911	845.44385	-249.30356	532.49402	803.88983	-254.73553
3144	12.57200	385.28818	1422.84863	37.94268	449.95508	1352.25391	207.06361	417.14996	1366.95715	-158.57874	520.40063	1300.96106	12.62385	459.85330	1144.34766	255.00998	484.55002	1086.85791	265.37625	477.78278	1033.60022	174.73953	596.59741	1043.08630	237.81680	668.71173	1122.16992	262.77515	681.36334	1095.89429	189.38313	747.65863	1106.14453	283.83438	396.61694	1159.83508	-229.01218	400.23810	1080.80090	-250.59196	339.45505	1044.54126	-180.05400	395.92368	935.42181	-258.32486	496.11969	876.45557	-230.17993	433.85239	845.44122	-249.29637	532.61353	803.88586	-254.74936
3145	12.57600	385.35901	1422.82617	37.95977	449.98813	1352.30994	207.06149	417.24063	1366.95447	-158.56586	520.46478	1301.10620	12.47675	460.18387	1144.45178	255.03516	484.92694	1087.20801	265.39478	478.39331	1033.81921	174.73608	597.07166	1044.26587	237.68730	668.56549	1123.96228	262.54153	681.33069	1097.65369	189.28899	746.97925	1108.62585	283.39960	396.72479	1159.82751	-228.98949	400.34998	1080.78931	-250.56664	339.56964	1044.52771	-180.02177	396.04013	935.41302	-258.30472	496.21506	876.29834	-230.07428	433.97067	845.43286	-249.28154	532.73309	803.88538	-254.76743
3146	12.58000	385.42639	1422.79932	37.97372	450.02347	1352.36841	207.05930	417.33759	1366.95813	-158.54443	520.46912	1301.35352	12.17237	460.51752	1144.55029	255.05919	485.29883	1087.53723	265.41071	479.09015	1034.09412	174.66026	597.54016	1045.42822	237.57288	668.40686	1125.74780	262.27756	681.29279	1099.57202	189.06039	746.75562	1111.17151	283.09030	396.83054	1159.81860	-228.96719	400.45734	1080.78198	-250.55611	339.69327	1044.51074	-179.99019	396.15726	935.39954	-258.28131	496.30557	876.01648	-229.87604	434.09378	845.42932	-249.27161	532.85358	803.88599	-254.78548
